<svg xmlns="http://www.w3.org/2000/svg" width="389" height="97" fill="none" viewBox="0 0 389 97">
  <g clip-path="url(#a)">
    <path fill="#777776" fill-rule="evenodd" d="M81.742 19.394c-3.924 0-6.598-1.924-6.598-4.72V3.757h3.691v10.894c0 1.656 1.396 2.55 3.053 2.55 1.686 0 3.023-.894 3.023-2.55V3.757h3.43v10.917c0 2.796-2.675 4.72-6.599 4.72ZM94.884 8.22c-.614 0-1.091.088-1.432.21v4.721c.182.053.636.088 1.068.088 2.228 0 3.32-.927 3.32-2.535 0-1.679-.842-2.484-2.956-2.484Zm3.047 10.93-4.434-5.457h-.045v5.456H90.61V7.626c.977-.385 2.478-.682 4.274-.682 3.888 0 5.775 1.4 5.775 3.655 0 1.818-1.705 3.06-4.184 3.182v.035l4.662 5.333h-3.206Zm7.977-5.754-.887.018v4.32c.5.157 1.046.226 1.819.226 1.865 0 3.183-.577 3.183-2.133 0-1.66-1.16-2.483-4.115-2.43Zm.841-5.193c-.682 0-1.205.07-1.728.21v3.9l.887.016c2.774.053 3.706-.682 3.706-2.133 0-1.329-.978-1.993-2.865-1.993Zm.182 11.121c-1.978 0-3.57-.245-4.638-.682V7.626c.955-.402 2.569-.682 4.456-.682 3.774 0 5.639 1.33 5.639 3.113 0 1.643-1.592 2.5-2.91 2.727v.035c1.432.245 3.433 1.294 3.433 3.043 0 2.396-2.411 3.462-5.98 3.462Zm12.957-8.796c-.341-.891-.41-1.451-.41-1.451h-.045s-.068.56-.432 1.451l-1.682 4.232h4.183l-1.614-4.232Zm3.228 8.621-1.204-3.095h-5.048l-1.25 3.095h-2.592l5.184-12.03h2.728l5.161 12.03h-2.979Zm12.957 0-5.934-7.764c-.523-.681-.91-1.346-.91-1.346h-.045s.091.682.091 1.399v7.711h-2.433V7.119h2.728l5.594 7.309c.522.682.841 1.224.841 1.224h.045s-.068-.577-.068-1.277V7.119h2.41v12.03h-2.319Zm-55.406 8.182c-.785 0-1.396.111-1.832.268v6.04c.233.067.814.111 1.367.111 2.848 0 4.244-1.185 4.244-3.243 0-2.147-1.076-3.176-3.779-3.176Zm3.895 13.981-5.669-6.98h-.058v6.98h-3.633V26.57c1.25-.492 3.169-.872 5.465-.872 4.971 0 7.383 1.789 7.383 4.675 0 2.326-2.18 3.915-5.348 4.071v.045l5.959 6.823h-4.099Zm5.136-.008v-12.03h7.616v1.485h-4.729v3.637h4.206v1.47h-4.206v3.951h4.729v1.487h-7.616Zm13.457-10.755c-.614 0-1.068.053-1.477.175v9.041c.341.088.909.175 1.523.175 2.683 0 3.729-1.504 3.729-4.774 0-3.13-1.16-4.617-3.775-4.617Zm.092 10.93c-1.933 0-3.479-.263-4.434-.683V29.78c1.023-.402 2.478-.682 4.274-.682 4.729 0 6.775 2.501 6.775 6.103 0 3.585-1.886 6.278-6.615 6.278Zm8.204-.175v-12.03h7.616v1.485h-4.729v3.637h4.206v1.47h-4.206v3.951h4.729v1.487h-7.616Zm15.049 0h-2.501l-4.707-12.03h3.07l2.546 7.728c.228.7.409 1.521.409 1.521h.046s.182-.82.409-1.52l2.592-7.73h2.751L126.5 41.304Zm5.409 0v-12.03h7.616v1.485h-4.729v3.637h4.206v1.47h-4.206v3.951h4.729v1.487h-7.616Zm9.16 0v-12.03h2.91v10.543h4.32v1.487h-7.23Zm13.798-10.737c-2.41 0-2.955 2.395-2.955 4.651 0 2.239.477 4.617 2.955 4.617 2.479 0 2.933-2.378 2.933-4.617 0-2.256-.523-4.651-2.933-4.651Zm0 10.912c-4.206 0-5.888-2.763-5.888-6.191 0-3.41 1.682-6.19 5.888-6.19 4.206 0 5.866 2.78 5.866 6.19 0 3.428-1.66 6.191-5.866 6.191Zm11.729-11.104c-.682 0-1.182.104-1.455.192v4.669l.591.035c2.82.175 3.842-.787 3.842-2.448 0-1.627-.841-2.448-2.978-2.448Zm-.841 6.208-.614-.036v4.757h-2.819V29.78c1-.402 2.524-.682 4.32-.682 4.024 0 5.707 1.609 5.707 3.742 0 2.186-1.933 4.005-6.594 3.743Zm20.482 4.721c-.022-.298-1-7.957-1-7.957-.091-.752-.068-1.45-.068-1.45h-.045s-.159.681-.455 1.45c0 0-2.797 7.554-2.979 7.957h-1.636c-.159-.35-2.956-7.974-2.956-7.974-.273-.752-.454-1.434-.454-1.434h-.046s.023.682-.069 1.434c0 0-.977 7.624-1 7.974h-2.432l1.751-12.03h2.91l2.796 7.71c.273.77.409 1.347.409 1.347h.046s.113-.577.409-1.347l2.888-7.71h2.91l1.75 12.03h-2.729Zm4.248 0v-12.03h7.617v1.485h-4.729v3.637h4.206v1.47h-4.206v3.951h4.729v1.487h-7.617Zm18.345 0-5.934-7.764a14.28 14.28 0 0 1-.909-1.347h-.046s.091.682.091 1.4v7.711H199.6v-12.03h2.728l5.593 7.31c.522.68.841 1.223.841 1.223h.046s-.069-.578-.069-1.277v-7.257h2.41v12.031h-2.319Zm9.295-10.544v10.544h-2.887V30.76h-2.91v-1.486h8.731v1.486h-2.934ZM82.207 52.44c-.436-1.14-.523-1.856-.523-1.856h-.058s-.087.716-.552 1.856l-2.151 5.414h5.348l-2.064-5.414Zm4.128 11.03-1.541-3.96h-6.453l-1.598 3.96h-3.314l6.628-15.39h3.487l6.599 15.39h-3.808Zm9.481.193c-3.069 0-5.161-1.504-5.161-3.689V51.44h2.887v8.516c0 1.294 1.092 1.993 2.388 1.993 1.318 0 2.364-.699 2.364-1.993V51.44h2.683v8.534c0 2.185-2.091 3.69-5.161 3.69Zm12.138-10.737v10.545h-2.888V52.926h-2.91V51.44h8.731v1.486h-2.933Zm11.911 10.545v-5.439h-4.933v5.44h-2.888V51.44h2.888v5.123h4.933V51.44h2.888v12.031h-2.888Zm10.364-10.737c-2.409 0-2.955 2.395-2.955 4.651 0 2.238.477 4.617 2.955 4.617 2.479 0 2.934-2.379 2.934-4.617 0-2.256-.523-4.651-2.934-4.651Zm0 10.912c-4.206 0-5.888-2.763-5.888-6.191 0-3.41 1.682-6.19 5.888-6.19 4.207 0 5.866 2.78 5.866 6.19 0 3.428-1.659 6.191-5.866 6.191Zm11.775-11.105c-.614 0-1.091.088-1.433.211v4.721c.182.052.637.088 1.069.088 2.228 0 3.319-.928 3.319-2.536 0-1.679-.841-2.484-2.955-2.484Zm3.046 10.93-4.433-5.456h-.046v5.456h-2.842V51.947c.978-.385 2.478-.682 4.275-.682 3.888 0 5.775 1.399 5.775 3.655 0 1.818-1.706 3.06-4.184 3.183v.034l4.661 5.334h-3.206Zm4.408 0h2.91v-12.03h-2.91v12.03Zm9.934-10.545v10.545h-2.888V52.926h-2.91V51.44h8.731v1.486h-2.933Zm11.252 5.351v5.194h-2.887v-5.194l-4.206-6.837h3.069l2.683 4.984h.045l2.797-4.984h2.75l-4.251 6.837Z" clip-rule="evenodd"/>
    <path fill="#D82332" fill-rule="evenodd" d="M59.932 63.191h6.643V3.551h-6.643v59.64Z" clip-rule="evenodd"/>
    <path fill="#D82332" fill-rule="evenodd" d="M0 33.605C0 15.06 14.868.035 33.216.035c18.346 0 33.215 15.025 33.215 33.57 0 18.55-14.869 33.58-33.215 33.58C14.868 67.184 0 52.154 0 33.604Zm6.033-.065c0 14.995 12.007 27.155 26.815 27.155 14.807 0 26.815-12.16 26.815-27.155 0-14.999-12.008-27.158-26.815-27.158-14.808 0-26.815 12.16-26.815 27.158Z" clip-rule="evenodd"/>
    <path fill="#D82332" fill-rule="evenodd" d="M45.408 22.868v11.303c0 1.673-1.049 2.885-2.731 2.885h-4.743V20.11l4.539-.012c1.682 0 2.935 1.103 2.935 2.771Zm-16.641-6.753h20.127c3.367 0 5.696 2.73 5.696 6.093l.014 9.03c0 3.367-2.622 6.341-5.985 6.341 3.351 0 5.971 2.398 5.971 5.766v6.088h-9.418l.014-4.373c.111-1.649-1.283-3.235-2.952-3.235l-4.365-.067v7.714H28.63v-7.44c0 4.476-3.571 7.426-8.051 7.426-4.466 0-8.27-3.675-8.27-8.148V16.115h8.778v18.26c0 1.667 1.408 2.854 3.075 2.854l4.538.013.067-21.127Z" clip-rule="evenodd"/>
    <path stroke="#D82332" stroke-width=".25" d="M45.408 22.868v11.303c0 1.673-1.049 2.885-2.731 2.885h-4.743V20.11l4.539-.012c1.682 0 2.935 1.103 2.935 2.771Zm-16.641-6.753h20.127c3.367 0 5.696 2.73 5.696 6.093l.014 9.03c0 3.367-2.622 6.341-5.985 6.341 3.351 0 5.971 2.398 5.971 5.766v6.088h-9.418l.014-4.373c.111-1.649-1.283-3.235-2.952-3.235l-4.365-.067v7.714H28.63v-7.44c0 4.476-3.571 7.426-8.051 7.426-4.466 0-8.27-3.675-8.27-8.148V16.115h8.778v18.26c0 1.667 1.408 2.854 3.075 2.854l4.538.013.067-21.127Z" clip-rule="evenodd"/>
    <path fill="#1A1919" fill-rule="evenodd" d="M5.208 81.264v11.685H4.182V81.264H1.571v-.702h6.248v.702H5.208Zm7.705 2.43c-2.179 0-2.593 2.377-2.593 4.43 0 2.07.468 4.303 2.593 4.303 2.16 0 2.557-2.25 2.557-4.303s-.397-4.43-2.557-4.43Zm0 9.435c-2.557 0-3.565-2.196-3.565-5.024 0-2.88 1.008-5.04 3.529-5.04 2.575 0 3.565 2.16 3.565 5.04 0 2.828-1.008 5.024-3.529 5.024Zm21.872-.179v-7.077c0-1.08-.504-2.125-2.125-2.125-.954 0-1.71.343-2.358 1.063v8.138h-.973v-7.166c0-1.224-.828-2.053-2.467-2.053-.918 0-1.422.11-2.034.397v8.822h-.973v-9.2c.793-.433 1.603-.685 3.079-.685 1.459 0 2.323.468 2.917 1.26.721-.773 1.693-1.26 2.917-1.26 2.323 0 2.989 1.603 2.989 2.773v7.112h-.972Zm8.655-5.709c-2.844.378-4.465.937-4.465 3.115 0 1.55.972 2.18 2.575 2.18.702 0 1.423-.145 1.89-.397v-4.898Zm-2.016 5.888c-2.377 0-3.403-1.134-3.403-2.773 0-2.592 2.376-3.384 5.419-3.69v-.667c0-1.746-1.026-2.232-2.358-2.232-.937 0-1.747.341-2.251.63l-.27-.63c.504-.288 1.513-.703 2.629-.703 1.621 0 3.169.703 3.169 2.954v6.427c-.702.414-1.729.684-2.935.684Zm10.926-.179-4.141-5.06h-.036v5.06h-.936V78.814h.936v9.04h.036l3.817-4.61h1.081l-3.997 4.627 4.375 5.077H52.35Zm5.958-9.166c-1.548 0-2.755 1.19-2.755 4.142l5.294-.81c0-2.43-.973-3.332-2.539-3.332Zm-2.737 4.736c.144 2.575 1.332 3.853 3.259 3.853 1.081 0 1.837-.288 2.323-.576l.306.702c-.522.324-1.495.63-2.647.63-2.34 0-4.159-1.422-4.159-5.06 0-3.42 1.639-5.005 3.673-5.005 2.088 0 3.475 1.315 3.475 4.538l-6.23.918Zm15.841 4.61c-1.333 0-2.089-.27-2.701-.667l.324-.72c.504.324 1.17.594 2.232.594 1.621 0 2.666-1.08 2.666-2.736 0-1.26-.685-1.999-2.395-2.648-2.125-.792-2.701-2.07-2.701-3.276 0-1.765 1.26-3.295 3.277-3.295 1.026 0 1.854.288 2.359.647l-.288.667a3.727 3.727 0 0 0-2.017-.594c-1.495 0-2.323 1.026-2.323 2.556 0 1.46 1.098 2.071 2.251 2.503 2.484.901 2.863 2.395 2.863 3.403 0 2.124-1.513 3.565-3.547 3.565Zm6.137-.18h.972v-9.706h-.972v9.705Zm.486-11.776a.646.646 0 0 1-.648-.649c0-.36.288-.648.648-.648.36 0 .648.288.648.648a.646.646 0 0 1-.648.65Z" clip-rule="evenodd"/>
    <mask id="b" width="16" height="14" x="81" y="83" maskUnits="userSpaceOnUse" style="mask-type:alpha">
      <path fill="#fff" d="M81.418 83.064h15.519V96.94H81.418V83.064Z"/>
    </mask>
    <g mask="url(#b)">
      <path fill="#1A1919" fill-rule="evenodd" d="M86.874 92.95v-7.06c0-1.008-.396-2.16-2.322-2.16-1.081 0-1.567.144-2.161.396v8.822h-.973v-9.2c.811-.433 1.819-.685 3.278-.685 2.502 0 3.151 1.584 3.151 2.773v7.112h-.973ZM96 84.001c-.414-.234-.99-.324-1.639-.324-2.214 0-3.169 1.872-3.169 4.573 0 2.63.919 4.213 3.007 4.213.721 0 1.369-.198 1.801-.468v-7.994Zm-2.521 13c-1.188 0-2.107-.253-2.701-.63l.379-.685c.486.29 1.314.576 2.178.576 1.909 0 2.665-1.26 2.665-2.899v-.756c-.45.29-1.188.487-2.053.487-2.323 0-3.727-1.873-3.727-4.844 0-3.025 1.404-5.186 4.124-5.186 1.26 0 2.106.325 2.593.65v9.506c0 2.286-1.225 3.78-3.458 3.78Z" clip-rule="evenodd"/>
    </g>
    <path fill="#1A1919" fill-rule="evenodd" d="M104.621 87.241c-2.845.378-4.465.937-4.465 3.115 0 1.55.972 2.18 2.574 2.18.703 0 1.423-.145 1.891-.397v-4.898Zm-2.017 5.888c-2.376 0-3.402-1.134-3.402-2.773 0-2.592 2.376-3.384 5.419-3.69v-.667c0-1.746-1.026-2.232-2.358-2.232-.937 0-1.747.341-2.251.63l-.27-.63c.504-.288 1.512-.703 2.629-.703 1.62 0 3.169.703 3.169 2.954v6.427c-.703.414-1.729.684-2.936.684Zm8.316-9.452c-.72 0-1.224.107-1.656.342v8.21c.342.126.828.234 1.386.234 2.233 0 3.404-1.692 3.404-4.465 0-2.61-.829-4.32-3.134-4.32Zm-.108 9.417c-.54 0-1.152-.109-1.548-.253v3.98h-.954V83.73c.558-.36 1.476-.667 2.683-.667 2.646 0 4.033 2.017 4.033 4.826 0 3.295-1.639 5.204-4.214 5.204Zm9.756-9.4c-2.178 0-2.592 2.377-2.592 4.43 0 2.07.468 4.303 2.592 4.303 2.161 0 2.557-2.25 2.557-4.303s-.396-4.43-2.557-4.43Zm0 9.435c-2.556 0-3.565-2.196-3.565-5.024 0-2.88 1.009-5.04 3.53-5.04 2.574 0 3.565 2.16 3.565 5.04 0 2.828-1.009 5.024-3.53 5.024Zm9.271-9.219c-.846-.233-1.855-.126-2.395.271v8.768h-.972v-9.2c.882-.45 1.53-.685 3.655-.685l-.288.846Zm5.346-.126c-1.549 0-2.755 1.19-2.755 4.142l5.293-.81c0-2.43-.972-3.332-2.538-3.332Zm-2.737 4.736c.144 2.575 1.332 3.853 3.259 3.853 1.08 0 1.836-.288 2.322-.576l.306.702c-.522.324-1.494.63-2.647.63-2.34 0-4.159-1.422-4.159-5.06 0-3.42 1.639-5.005 3.674-5.005 2.088 0 3.475 1.315 3.475 4.538l-6.23.918Z" clip-rule="evenodd"/>
    <mask id="c" width="22" height="14" x="145" y="83" maskUnits="userSpaceOnUse" style="mask-type:alpha">
      <path fill="#fff" d="M145.587 83.064h20.468V96.94h-20.468V83.064Z"/>
    </mask>
    <g mask="url(#c)">
      <path fill="#1A1919" fill-rule="evenodd" d="M151.007 87.241c-2.845.378-4.466.937-4.466 3.115 0 1.55.973 2.18 2.575 2.18.702 0 1.423-.145 1.891-.397v-4.898Zm-2.017 5.888c-2.376 0-3.403-1.134-3.403-2.773 0-2.592 2.377-3.384 5.42-3.69v-.667c0-1.746-1.027-2.232-2.359-2.232-.936 0-1.746.341-2.251.63l-.27-.63c.505-.288 1.513-.703 2.629-.703 1.621 0 3.169.703 3.169 2.954v6.427c-.702.414-1.728.684-2.935.684Zm16.128-9.128c-.414-.234-.99-.324-1.638-.324-2.214 0-3.169 1.872-3.169 4.573 0 2.63.918 4.213 3.007 4.213.72 0 1.368-.198 1.8-.468v-7.994Zm-2.52 13c-1.188 0-2.107-.253-2.701-.63l.378-.685c.486.29 1.315.576 2.179.576 1.908 0 2.664-1.26 2.664-2.899v-.756c-.449.29-1.187.487-2.052.487-2.323 0-3.727-1.873-3.727-4.844 0-3.025 1.404-5.186 4.123-5.186 1.261 0 2.106.325 2.593.65v9.506c0 2.286-1.224 3.78-3.457 3.78Z" clip-rule="evenodd"/>
    </g>
    <path fill="#1A1919" fill-rule="evenodd" d="M172.192 83.91c-.846-.233-1.855-.126-2.395.271v8.768h-.972v-9.2c.882-.45 1.53-.685 3.654-.685l-.287.846Zm5.346-.126c-1.549 0-2.755 1.19-2.755 4.142l5.294-.81c0-2.43-.973-3.332-2.539-3.332Zm-2.737 4.736c.144 2.575 1.333 3.853 3.26 3.853 1.08 0 1.835-.288 2.322-.576l.305.702c-.521.324-1.494.63-2.646.63-2.341 0-4.159-1.422-4.159-5.06 0-3.42 1.638-5.005 3.673-5.005 2.089 0 3.475 1.315 3.475 4.538l-6.23.918Zm13.519-1.279c-2.844.378-4.465.937-4.465 3.115 0 1.55.972 2.18 2.575 2.18.702 0 1.423-.145 1.89-.397v-4.898Zm-2.016 5.888c-2.377 0-3.404-1.134-3.404-2.773 0-2.592 2.377-3.384 5.42-3.69v-.667c0-1.746-1.026-2.232-2.358-2.232-.937 0-1.747.341-2.251.63l-.27-.63c.504-.288 1.512-.703 2.628-.703 1.621 0 3.169.703 3.169 2.954v6.427c-.702.414-1.728.684-2.934.684Zm8.387-.126c-1.638 0-2.161-1.224-2.161-2.269V83.82h-1.134v-.576h1.134v-2.322l.973-.36v2.682h1.801v.559h-1.801v6.986c0 .792.378 1.53 1.404 1.53.109 0 .271 0 .397-.036v.63c-.162.054-.361.09-.613.09Zm10.872.127c-2.035 0-3.529-1.963-3.529-5.025 0-3.15 1.441-5.04 3.602-5.04 1.17 0 1.763.414 2.016.612l-.27.612c-.306-.234-.792-.505-1.603-.505-2.016 0-2.755 1.837-2.755 4.25 0 2.521.918 4.34 2.702 4.34.719 0 1.242-.235 1.638-.523l.288.667c-.36.305-1.062.611-2.089.611Zm4.32-.18h.971v-9.706h-.971v9.705Zm.486-11.776a.646.646 0 0 1-.648-.649c0-.36.288-.648.648-.648.359 0 .648.288.648.648a.646.646 0 0 1-.648.65Zm6.067 11.829c-1.639 0-2.162-1.224-2.162-2.269V83.82h-1.133v-.576h1.133v-2.322l.973-.36v2.682h1.801v.559h-1.801v6.986c0 .792.378 1.53 1.404 1.53.109 0 .271 0 .397-.036v.63c-.162.054-.361.09-.612.09Zm4.697 3.817h-1.08l1.62-3.871-3.277-9.705h1.063l2.34 7.652c.18.577.234 1.081.234 1.081h.036s.09-.486.271-1.081l2.412-7.652h.883l-4.502 13.576Zm14.202-3.817c-1.639 0-2.161-1.224-2.161-2.269V83.82h-1.134v-.576h1.134v-2.322l.972-.36v2.682h1.801v.559h-1.801v6.986c0 .792.378 1.53 1.405 1.53.108 0 .27 0 .396-.036v.63c-.162.054-.36.09-.612.09Zm5.868-9.309c-2.179 0-2.593 2.377-2.593 4.43 0 2.07.468 4.303 2.593 4.303 2.16 0 2.557-2.25 2.557-4.303s-.397-4.43-2.557-4.43Zm0 9.435c-2.557 0-3.565-2.196-3.565-5.024 0-2.88 1.008-5.04 3.529-5.04 2.574 0 3.564 2.16 3.564 5.04 0 2.828-1.007 5.024-3.528 5.024Zm11.087-.179h.973V78.814h-.973V92.95Zm4.015 0h.971v-9.706h-.971v9.705Zm.486-11.776a.646.646 0 0 1-.648-.649c0-.36.288-.648.648-.648.359 0 .647.288.647.648a.645.645 0 0 1-.647.65Zm6.714 11.775h-.793l-3.276-9.705h1.062l2.376 7.652a6.26 6.26 0 0 1 .234 1.027h.037s.072-.432.251-1.027l2.395-7.652h.883l-3.169 9.705Zm8.405-9.165c-1.549 0-2.755 1.19-2.755 4.142l5.294-.81c0-2.43-.972-3.332-2.539-3.332Zm-2.737 4.736c.144 2.575 1.333 3.853 3.26 3.853 1.08 0 1.836-.288 2.322-.576l.306.702c-.522.324-1.495.63-2.647.63-2.341 0-4.159-1.422-4.159-5.06 0-3.42 1.639-5.005 3.673-5.005 2.089 0 3.475 1.315 3.475 4.538l-6.23.918Zm8.118 7.472h-.576l1.458-4.069c.18-.162.396-.27.774-.27.288 0 .397.144.433.27l-2.089 4.07Zm18.561-3.043h-.775l-2.232-7.778a5.442 5.442 0 0 1-.199-1.026h-.036s-.053.467-.215 1.026l-2.288 7.778h-.773l-2.81-9.705h1.027l1.963 7.652c.162.613.198 1.027.198 1.027h.036s.054-.414.233-1.027l2.234-7.652h.882l2.161 7.652c.143.487.216 1.027.216 1.027h.036s.09-.54.216-1.044l2.016-7.635h.918l-2.808 9.705Zm8.062-9.255c-2.179 0-2.593 2.377-2.593 4.43 0 2.07.468 4.303 2.593 4.303 2.16 0 2.557-2.25 2.557-4.303s-.397-4.43-2.557-4.43Zm0 9.435c-2.557 0-3.565-2.196-3.565-5.024 0-2.88 1.008-5.04 3.529-5.04 2.574 0 3.564 2.16 3.564 5.04 0 2.828-1.007 5.024-3.528 5.024Zm9.271-9.219c-.847-.233-1.856-.126-2.396.271v8.768h-.972v-9.2c.882-.45 1.531-.685 3.655-.685l-.287.846Zm7.308 9.04-4.141-5.06h-.037v5.06h-.936V78.814h.936v9.04h.037l3.817-4.61h1.08l-3.997 4.627 4.375 5.077h-1.134Zm12.653-5.709c-2.844.378-4.464.937-4.464 3.115 0 1.55.971 2.18 2.574 2.18.702 0 1.423-.145 1.89-.397v-4.898Zm-2.016 5.888c-2.377 0-3.403-1.134-3.403-2.773 0-2.592 2.376-3.384 5.419-3.69v-.667c0-1.746-1.026-2.232-2.358-2.232-.936 0-1.747.341-2.251.63l-.269-.63c.503-.288 1.511-.703 2.627-.703 1.622 0 3.169.703 3.169 2.954v6.427c-.702.414-1.728.684-2.934.684Zm11.16-.179v-7.06c0-1.008-.395-2.16-2.322-2.16-1.08 0-1.567.144-2.161.396v8.822h-.972v-9.2c.81-.433 1.818-.685 3.276-.685 2.503 0 3.152 1.584 3.152 2.773v7.112h-.973Zm9.107-8.985a5.317 5.317 0 0 0-1.421-.198c-2.594 0-3.368 2.232-3.368 4.411 0 2.377.865 4.267 3.133 4.267.775 0 1.296-.072 1.656-.324v-8.156Zm-1.746 9.164c-2.701 0-4.015-2.07-4.015-4.825 0-3.277 1.675-5.132 4.195-5.132.504 0 .99.072 1.566.234v-4.59h.955v13.647c-.522.36-1.513.666-2.701.666Zm13.121-9.452c-.719 0-1.224.107-1.656.342v8.21a4.1 4.1 0 0 0 1.387.234c2.232 0 3.402-1.692 3.402-4.465 0-2.61-.828-4.32-3.133-4.32Zm-.107 9.417a4.982 4.982 0 0 1-1.549-.253v3.98h-.954V83.73c.558-.36 1.477-.667 2.683-.667 2.646 0 4.033 2.017 4.033 4.826 0 3.295-1.639 5.204-4.213 5.204Zm6.73-.144h.973V78.814h-.973V92.95Zm8.804-5.709c-2.845.378-4.465.937-4.465 3.115 0 1.55.972 2.18 2.575 2.18.702 0 1.422-.145 1.89-.397v-4.898Zm-2.016 5.888c-2.377 0-3.404-1.134-3.404-2.773 0-2.592 2.377-3.384 5.42-3.69v-.667c0-1.746-1.026-2.232-2.358-2.232-.937 0-1.747.341-2.251.63l-.27-.63c.504-.288 1.512-.703 2.628-.703 1.621 0 3.169.703 3.169 2.954v6.427c-.702.414-1.728.684-2.934.684Zm7.704 3.691h-1.08l1.62-3.871-3.277-9.705h1.063l2.34 7.652c.18.577.234 1.081.234 1.081h.036s.09-.486.271-1.081l2.412-7.652h.883l-4.502 13.576Z" clip-rule="evenodd"/>
  </g>
  <defs>
    <clipPath id="a">
      <path fill="#fff" d="M0 0h389v97H0z"/>
    </clipPath>
  </defs>
</svg>
