<svg width="24" height="24" viewBox="0 0 24 24" fill="none" xmlns="http://www.w3.org/2000/svg">
<g clip-path="url(#clip0)">
<g clip-path="url(#clip1)">
<path fill-rule="evenodd" clip-rule="evenodd" d="M21.5674 22.6763H23.9503V1.27979H21.5674V22.6763Z" fill="#D82332"/>
<path fill-rule="evenodd" clip-rule="evenodd" d="M2.23546 12.0377C2.23546 17.4186 6.54138 21.7806 11.8533 21.7806C17.1653 21.7806 21.4715 17.4186 21.4715 12.0377C21.4715 6.65686 17.1653 2.29492 11.8533 2.29492C6.54138 2.29492 2.23546 6.65686 2.23546 12.0377ZM0.0712891 12.0622C0.0712891 5.40898 5.40524 0.015625 11.9852 0.015625C18.5653 0.015625 23.8992 5.40898 23.8992 12.0622C23.8992 18.7155 18.5653 24.1088 11.9852 24.1088C5.40524 24.1088 0.0712891 18.7155 0.0712891 12.0622Z" fill="#D82332"/>
<path fill-rule="evenodd" clip-rule="evenodd" d="M10.3903 5.78564H17.6097C18.8163 5.78564 19.6521 6.76508 19.6521 7.97184L19.6569 11.2117C19.6569 12.4185 18.7174 13.4874 17.5107 13.4874C18.7124 13.4874 19.6521 14.3481 19.6521 15.5548V17.7398H16.2745L16.2795 16.1728C16.319 15.5795 15.8195 15.0099 15.2214 15.0099L13.6539 14.9867V17.7546H10.3407V15.0839C10.3407 16.6911 9.05982 17.7497 7.45276 17.7497C5.8506 17.7497 4.48584 16.4306 4.48584 14.8264V5.78564H7.63568V12.3385C7.63568 12.9369 8.1401 13.3624 8.73843 13.3624L10.3653 13.3673L10.3903 5.78564ZM16.3586 8.20928V12.2656C16.3586 12.8642 15.9829 13.2996 15.3796 13.2996H13.6784V7.22025L15.3054 7.21513C15.9087 7.21513 16.3586 7.61071 16.3586 8.20928Z" fill="#D82332"/>
<path fill-rule="evenodd" clip-rule="evenodd" d="M10.3903 5.78564H17.6097C18.8163 5.78564 19.6521 6.76508 19.6521 7.97184L19.6569 11.2117C19.6569 12.4185 18.7174 13.4874 17.5107 13.4874C18.7124 13.4874 19.6521 14.3481 19.6521 15.5548V17.7398H16.2745L16.2795 16.1728C16.319 15.5795 15.8195 15.0099 15.2214 15.0099L13.6539 14.9867V17.7546H10.3407V15.0839C10.3407 16.6911 9.05982 17.7497 7.45276 17.7497C5.8506 17.7497 4.48584 16.4306 4.48584 14.8264V5.78564H7.63568V12.3385C7.63568 12.9369 8.1401 13.3624 8.73843 13.3624L10.3653 13.3673L10.3903 5.78564ZM16.3586 8.20928V12.2656C16.3586 12.8642 15.9829 13.2996 15.3796 13.2996H13.6784V7.22025L15.3054 7.21513C15.9087 7.21513 16.3586 7.61071 16.3586 8.20928Z" stroke="#D82332" fill="#D82332" stroke-width="0.25"/>
</g>
</g>
<defs>
<clipPath id="clip0">
<rect width="24" height="24" fill="white"/>
</clipPath>
<clipPath id="clip1">
<rect width="24" height="24.1101" fill="white"/>
</clipPath>
</defs>
</svg>
