<svg width="65" height="60" viewBox="0 0 65 60" fill="none" xmlns="http://www.w3.org/2000/svg">
<rect x="1" y="1" width="63" height="58" rx="7" fill="white" stroke="#D5D5D5" stroke-width="2"/>
<path d="M22.7498 26.664C22.5351 26.4027 22.2691 26.202 21.9518 26.062C21.6438 25.922 21.2844 25.852 20.8738 25.852C20.4631 25.852 20.0804 25.9313 19.7258 26.09C19.3804 26.2487 19.0771 26.4727 18.8158 26.762C18.5638 27.042 18.3631 27.378 18.2138 27.77C18.0738 28.162 18.0038 28.5867 18.0038 29.044C18.0038 29.5107 18.0738 29.94 18.2138 30.332C18.3631 30.7147 18.5638 31.0507 18.8158 31.34C19.0678 31.62 19.3618 31.8393 19.6978 31.998C20.0431 32.1567 20.4118 32.236 20.8038 32.236C21.2518 32.236 21.6484 32.1427 21.9938 31.956C22.3391 31.7693 22.6238 31.508 22.8478 31.172L24.6678 32.53C24.2478 33.118 23.7158 33.552 23.0718 33.832C22.4278 34.112 21.7651 34.252 21.0838 34.252C20.3091 34.252 19.5951 34.1307 18.9418 33.888C18.2884 33.6453 17.7238 33.3 17.2478 32.852C16.7718 32.3947 16.3984 31.844 16.1278 31.2C15.8664 30.556 15.7358 29.8373 15.7358 29.044C15.7358 28.2507 15.8664 27.532 16.1278 26.888C16.3984 26.244 16.7718 25.698 17.2478 25.25C17.7238 24.7927 18.2884 24.4427 18.9418 24.2C19.5951 23.9573 20.3091 23.836 21.0838 23.836C21.3638 23.836 21.6531 23.864 21.9518 23.92C22.2598 23.9667 22.5584 24.046 22.8478 24.158C23.1464 24.27 23.4311 24.4193 23.7018 24.606C23.9724 24.7927 24.2151 25.0213 24.4298 25.292L22.7498 26.664ZM25.6138 23.416H27.7138V34H25.6138V23.416ZM35.6625 32.824C35.3265 33.2533 34.9018 33.5847 34.3885 33.818C33.8751 34.0513 33.3431 34.168 32.7925 34.168C32.2698 34.168 31.7751 34.084 31.3085 33.916C30.8511 33.748 30.4498 33.51 30.1045 33.202C29.7685 32.8847 29.5025 32.5067 29.3065 32.068C29.1105 31.6293 29.0125 31.1393 29.0125 30.598C29.0125 30.0567 29.1105 29.5667 29.3065 29.128C29.5025 28.6893 29.7685 28.316 30.1045 28.008C30.4498 27.6907 30.8511 27.448 31.3085 27.28C31.7751 27.112 32.2698 27.028 32.7925 27.028C33.2778 27.028 33.7165 27.112 34.1085 27.28C34.5098 27.448 34.8458 27.6907 35.1165 28.008C35.3965 28.316 35.6111 28.6893 35.7605 29.128C35.9098 29.5667 35.9845 30.0567 35.9845 30.598V31.256H31.1125C31.1965 31.6573 31.3785 31.9793 31.6585 32.222C31.9385 32.4553 32.2838 32.572 32.6945 32.572C33.0398 32.572 33.3291 32.4973 33.5625 32.348C33.8051 32.1893 34.0151 31.9887 34.1925 31.746L35.6625 32.824ZM33.8845 29.828C33.8938 29.4733 33.7771 29.17 33.5345 28.918C33.2918 28.666 32.9791 28.54 32.5965 28.54C32.3631 28.54 32.1578 28.5773 31.9805 28.652C31.8031 28.7267 31.6491 28.8247 31.5185 28.946C31.3971 29.058 31.2991 29.1933 31.2245 29.352C31.1591 29.5013 31.1218 29.66 31.1125 29.828H33.8845ZM41.5315 33.146H41.5035C41.2702 33.51 40.9575 33.7713 40.5655 33.93C40.1829 34.0887 39.7769 34.168 39.3475 34.168C39.0302 34.168 38.7222 34.1213 38.4235 34.028C38.1342 33.944 37.8775 33.8133 37.6535 33.636C37.4295 33.4587 37.2522 33.2393 37.1215 32.978C36.9909 32.7167 36.9255 32.4133 36.9255 32.068C36.9255 31.676 36.9955 31.3447 37.1355 31.074C37.2849 30.8033 37.4809 30.5793 37.7235 30.402C37.9755 30.2247 38.2602 30.0893 38.5775 29.996C38.8949 29.8933 39.2215 29.8187 39.5575 29.772C39.9029 29.7253 40.2435 29.6973 40.5795 29.688C40.9249 29.6787 41.2422 29.674 41.5315 29.674C41.5315 29.3007 41.3962 29.0067 41.1255 28.792C40.8642 28.568 40.5515 28.456 40.1875 28.456C39.8422 28.456 39.5249 28.5307 39.2355 28.68C38.9555 28.82 38.7035 29.016 38.4795 29.268L37.3595 28.12C37.7515 27.756 38.2089 27.4853 38.7315 27.308C39.2542 27.1213 39.7955 27.028 40.3555 27.028C40.9715 27.028 41.4755 27.1073 41.8675 27.266C42.2689 27.4153 42.5862 27.6393 42.8195 27.938C43.0622 28.2367 43.2302 28.6053 43.3235 29.044C43.4169 29.4733 43.4635 29.9727 43.4635 30.542V34H41.5315V33.146ZM41.0135 31.018C40.8549 31.018 40.6542 31.0273 40.4115 31.046C40.1782 31.0553 39.9495 31.0927 39.7255 31.158C39.5109 31.2233 39.3242 31.3213 39.1655 31.452C39.0162 31.5827 38.9415 31.7647 38.9415 31.998C38.9415 32.25 39.0489 32.4367 39.2635 32.558C39.4782 32.6793 39.7022 32.74 39.9355 32.74C40.1409 32.74 40.3369 32.712 40.5235 32.656C40.7195 32.6 40.8922 32.5207 41.0415 32.418C41.1909 32.3153 41.3075 32.1847 41.3915 32.026C41.4849 31.8673 41.5315 31.6807 41.5315 31.466V31.018H41.0135ZM44.7811 27.196H46.8811V28.288H46.9091C47.1331 27.868 47.3991 27.5553 47.7071 27.35C48.0151 27.1353 48.4024 27.028 48.8691 27.028C48.9904 27.028 49.1117 27.0327 49.2331 27.042C49.3544 27.0513 49.4664 27.07 49.5691 27.098V29.016C49.4197 28.9693 49.2704 28.9367 49.1211 28.918C48.9811 28.89 48.8317 28.876 48.6731 28.876C48.2717 28.876 47.9544 28.932 47.7211 29.044C47.4877 29.156 47.3057 29.3147 47.1751 29.52C47.0537 29.716 46.9744 29.954 46.9371 30.234C46.8997 30.514 46.8811 30.822 46.8811 31.158V34H44.7811V27.196Z" fill="#D5D5D5"/>
</svg>
