<svg width="252" height="60" viewBox="0 0 252 60" fill="none" xmlns="http://www.w3.org/2000/svg">
<rect width="252" height="60" rx="8" fill="#F4333D"/>
<path d="M19.56 29L16.932 24.23H16.194V29H13.116V16.364H18.282C19.278 16.364 20.124 16.538 20.82 16.886C21.528 17.234 22.056 17.714 22.404 18.326C22.752 18.926 22.926 19.598 22.926 20.342C22.926 21.182 22.686 21.932 22.206 22.592C21.738 23.252 21.042 23.72 20.118 23.996L23.034 29H19.56ZM16.194 22.052H18.102C18.666 22.052 19.086 21.914 19.362 21.638C19.65 21.362 19.794 20.972 19.794 20.468C19.794 19.988 19.65 19.61 19.362 19.334C19.086 19.058 18.666 18.92 18.102 18.92H16.194V22.052Z" fill="white"/>
<path d="M34.3262 23.816C34.3262 24.104 34.3082 24.404 34.2722 24.716H27.3062C27.3542 25.34 27.5522 25.82 27.9002 26.156C28.2602 26.48 28.6982 26.642 29.2142 26.642C29.9822 26.642 30.5162 26.318 30.8162 25.67H34.0922C33.9242 26.33 33.6182 26.924 33.1742 27.452C32.7422 27.98 32.1962 28.394 31.5362 28.694C30.8762 28.994 30.1382 29.144 29.3222 29.144C28.3382 29.144 27.4622 28.934 26.6942 28.514C25.9262 28.094 25.3262 27.494 24.8942 26.714C24.4622 25.934 24.2462 25.022 24.2462 23.978C24.2462 22.934 24.4562 22.022 24.8762 21.242C25.3082 20.462 25.9082 19.862 26.6762 19.442C27.4442 19.022 28.3262 18.812 29.3222 18.812C30.2942 18.812 31.1582 19.016 31.9142 19.424C32.6702 19.832 33.2582 20.414 33.6782 21.17C34.1102 21.926 34.3262 22.808 34.3262 23.816ZM31.1762 23.006C31.1762 22.478 30.9962 22.058 30.6362 21.746C30.2762 21.434 29.8262 21.278 29.2862 21.278C28.7702 21.278 28.3322 21.428 27.9722 21.728C27.6242 22.028 27.4082 22.454 27.3242 23.006H31.1762Z" fill="white"/>
<path d="M41.548 26.39V29H39.982C38.866 29 37.996 28.73 37.372 28.19C36.748 27.638 36.436 26.744 36.436 25.508V21.512H35.212V18.956H36.436V16.508H39.514V18.956H41.53V21.512H39.514V25.544C39.514 25.844 39.586 26.06 39.73 26.192C39.874 26.324 40.114 26.39 40.45 26.39H41.548Z" fill="white"/>
<path d="M46.3405 20.63C46.7005 20.078 47.1505 19.646 47.6905 19.334C48.2305 19.01 48.8305 18.848 49.4905 18.848V22.106H48.6445C47.8765 22.106 47.3005 22.274 46.9165 22.61C46.5325 22.934 46.3405 23.51 46.3405 24.338V29H43.2625V18.956H46.3405V20.63Z" fill="white"/>
<path d="M52.5097 17.912C51.9697 17.912 51.5257 17.756 51.1777 17.444C50.8417 17.12 50.6737 16.724 50.6737 16.256C50.6737 15.776 50.8417 15.38 51.1777 15.068C51.5257 14.744 51.9697 14.582 52.5097 14.582C53.0377 14.582 53.4697 14.744 53.8057 15.068C54.1537 15.38 54.3277 15.776 54.3277 16.256C54.3277 16.724 54.1537 17.12 53.8057 17.444C53.4697 17.756 53.0377 17.912 52.5097 17.912ZM54.0397 18.956V29H50.9617V18.956H54.0397Z" fill="white"/>
<path d="M65.7383 23.816C65.7383 24.104 65.7203 24.404 65.6843 24.716H58.7183C58.7663 25.34 58.9643 25.82 59.3123 26.156C59.6723 26.48 60.1103 26.642 60.6263 26.642C61.3943 26.642 61.9283 26.318 62.2283 25.67H65.5043C65.3363 26.33 65.0303 26.924 64.5863 27.452C64.1543 27.98 63.6083 28.394 62.9483 28.694C62.2883 28.994 61.5503 29.144 60.7343 29.144C59.7503 29.144 58.8743 28.934 58.1063 28.514C57.3383 28.094 56.7383 27.494 56.3063 26.714C55.8743 25.934 55.6583 25.022 55.6583 23.978C55.6583 22.934 55.8683 22.022 56.2883 21.242C56.7203 20.462 57.3203 19.862 58.0883 19.442C58.8563 19.022 59.7383 18.812 60.7343 18.812C61.7063 18.812 62.5703 19.016 63.3263 19.424C64.0823 19.832 64.6703 20.414 65.0903 21.17C65.5223 21.926 65.7383 22.808 65.7383 23.816ZM62.5883 23.006C62.5883 22.478 62.4083 22.058 62.0483 21.746C61.6883 21.434 61.2383 21.278 60.6983 21.278C60.1823 21.278 59.7443 21.428 59.3843 21.728C59.0363 22.028 58.8203 22.454 58.7363 23.006H62.5883Z" fill="white"/>
<path d="M71.8801 26.12L74.0581 18.956H77.3341L73.7701 29H69.9721L66.4081 18.956H69.7021L71.8801 26.12Z" fill="white"/>
<path d="M88.0977 23.816C88.0977 24.104 88.0797 24.404 88.0437 24.716H81.0777C81.1257 25.34 81.3237 25.82 81.6717 26.156C82.0317 26.48 82.4697 26.642 82.9857 26.642C83.7537 26.642 84.2877 26.318 84.5877 25.67H87.8637C87.6957 26.33 87.3897 26.924 86.9457 27.452C86.5137 27.98 85.9677 28.394 85.3077 28.694C84.6477 28.994 83.9097 29.144 83.0937 29.144C82.1097 29.144 81.2337 28.934 80.4657 28.514C79.6977 28.094 79.0977 27.494 78.6657 26.714C78.2337 25.934 78.0177 25.022 78.0177 23.978C78.0177 22.934 78.2277 22.022 78.6477 21.242C79.0797 20.462 79.6797 19.862 80.4477 19.442C81.2157 19.022 82.0977 18.812 83.0937 18.812C84.0657 18.812 84.9297 19.016 85.6857 19.424C86.4417 19.832 87.0297 20.414 87.4497 21.17C87.8817 21.926 88.0977 22.808 88.0977 23.816ZM84.9477 23.006C84.9477 22.478 84.7677 22.058 84.4077 21.746C84.0477 21.434 83.5977 21.278 83.0577 21.278C82.5417 21.278 82.1037 21.428 81.7437 21.728C81.3957 22.028 81.1797 22.454 81.0957 23.006H84.9477Z" fill="white"/>
<path d="M107.846 16.364V29H104.768V21.422L101.942 29H99.4579L96.6139 21.404V29H93.5359V16.364H97.1719L100.718 25.112L104.228 16.364H107.846Z" fill="white"/>
<path d="M120.319 18.956L114.019 33.77H110.707L113.011 28.658L108.925 18.956H112.363L114.685 25.238L116.989 18.956H120.319Z" fill="white"/>
<path d="M122.98 17.912C122.44 17.912 121.996 17.756 121.648 17.444C121.312 17.12 121.144 16.724 121.144 16.256C121.144 15.776 121.312 15.38 121.648 15.068C121.996 14.744 122.44 14.582 122.98 14.582C123.508 14.582 123.94 14.744 124.276 15.068C124.624 15.38 124.798 15.776 124.798 16.256C124.798 16.724 124.624 17.12 124.276 17.444C123.94 17.756 123.508 17.912 122.98 17.912ZM124.51 18.956V29H121.432V18.956H124.51Z" fill="white"/>
<path d="M132.861 18.848C134.037 18.848 134.973 19.232 135.669 20C136.377 20.756 136.731 21.8 136.731 23.132V29H133.671V23.546C133.671 22.874 133.497 22.352 133.149 21.98C132.801 21.608 132.333 21.422 131.745 21.422C131.157 21.422 130.689 21.608 130.341 21.98C129.993 22.352 129.819 22.874 129.819 23.546V29H126.741V18.956H129.819V20.288C130.131 19.844 130.551 19.496 131.079 19.244C131.607 18.98 132.201 18.848 132.861 18.848Z" fill="white"/>
<path d="M143.91 21.512H142.254V29H139.176V21.512H138.06V18.956H139.176V18.668C139.176 17.432 139.53 16.496 140.238 15.86C140.946 15.212 141.984 14.888 143.352 14.888C143.58 14.888 143.748 14.894 143.856 14.906V17.516C143.268 17.48 142.854 17.564 142.614 17.768C142.374 17.972 142.254 18.338 142.254 18.866V18.956H143.91V21.512Z" fill="white"/>
<path d="M149.928 29.144C148.944 29.144 148.056 28.934 147.264 28.514C146.484 28.094 145.866 27.494 145.41 26.714C144.966 25.934 144.744 25.022 144.744 23.978C144.744 22.946 144.972 22.04 145.428 21.26C145.884 20.468 146.508 19.862 147.3 19.442C148.092 19.022 148.98 18.812 149.964 18.812C150.948 18.812 151.836 19.022 152.628 19.442C153.42 19.862 154.044 20.468 154.5 21.26C154.956 22.04 155.184 22.946 155.184 23.978C155.184 25.01 154.95 25.922 154.482 26.714C154.026 27.494 153.396 28.094 152.592 28.514C151.8 28.934 150.912 29.144 149.928 29.144ZM149.928 26.48C150.516 26.48 151.014 26.264 151.422 25.832C151.842 25.4 152.052 24.782 152.052 23.978C152.052 23.174 151.848 22.556 151.44 22.124C151.044 21.692 150.552 21.476 149.964 21.476C149.364 21.476 148.866 21.692 148.47 22.124C148.074 22.544 147.876 23.162 147.876 23.978C147.876 24.782 148.068 25.4 148.452 25.832C148.848 26.264 149.34 26.48 149.928 26.48Z" fill="white"/>
<path d="M160.28 29V15H163.18V20.44C163.527 19.9333 163.98 19.5467 164.54 19.28C165.113 19.0133 165.727 18.88 166.38 18.88C167.047 18.88 167.66 19.0133 168.22 19.28C168.793 19.5467 169.287 19.9133 169.7 20.38C170.127 20.8333 170.46 21.38 170.7 22.02C170.94 22.6467 171.06 23.3267 171.06 24.06C171.06 24.7933 170.94 25.4733 170.7 26.1C170.46 26.7267 170.127 27.2733 169.7 27.74C169.287 28.2067 168.793 28.5733 168.22 28.84C167.66 29.1067 167.047 29.24 166.38 29.24C165.727 29.24 165.113 29.12 164.54 28.88C163.98 28.6267 163.527 28.24 163.18 27.72V29H160.28ZM168.16 24.06C168.16 23.7 168.093 23.3667 167.96 23.06C167.827 22.7533 167.647 22.4867 167.42 22.26C167.193 22.02 166.927 21.8333 166.62 21.7C166.313 21.5667 165.98 21.5 165.62 21.5C165.26 21.5 164.927 21.5667 164.62 21.7C164.313 21.8333 164.047 22.02 163.82 22.26C163.593 22.4867 163.413 22.7533 163.28 23.06C163.147 23.3667 163.08 23.7 163.08 24.06C163.08 24.42 163.147 24.7533 163.28 25.06C163.413 25.3667 163.593 25.64 163.82 25.88C164.047 26.1067 164.313 26.2867 164.62 26.42C164.927 26.5533 165.26 26.62 165.62 26.62C165.98 26.62 166.313 26.5533 166.62 26.42C166.927 26.2867 167.193 26.1067 167.42 25.88C167.647 25.64 167.827 25.3667 167.96 25.06C168.093 24.7533 168.16 24.42 168.16 24.06ZM179.395 19.12H182.315V29H179.395V27.74C179.102 28.2067 178.709 28.58 178.215 28.86C177.735 29.1267 177.169 29.26 176.515 29.26C175.382 29.26 174.495 28.9 173.855 28.18C173.215 27.46 172.895 26.4733 172.895 25.22V19.12H175.815V24.52C175.815 25.1733 175.962 25.68 176.255 26.04C176.562 26.4 176.995 26.58 177.555 26.58C178.115 26.58 178.562 26.3867 178.895 26C179.229 25.6 179.395 25.0467 179.395 24.34V19.12ZM188.11 21.2C187.843 21.2 187.623 21.2667 187.45 21.4C187.277 21.52 187.19 21.68 187.19 21.88C187.19 22.24 187.463 22.4933 188.01 22.64L189.25 22.96C190.183 23.2 190.89 23.5733 191.37 24.08C191.863 24.5733 192.11 25.1733 192.11 25.88C192.11 26.3733 192.01 26.8267 191.81 27.24C191.61 27.6533 191.33 28.0133 190.97 28.32C190.623 28.6133 190.203 28.84 189.71 29C189.23 29.1733 188.703 29.26 188.13 29.26C187.143 29.26 186.283 29.0467 185.55 28.62C184.817 28.1933 184.283 27.6 183.95 26.84L186.31 25.54C186.497 25.9533 186.757 26.28 187.09 26.52C187.423 26.76 187.777 26.88 188.15 26.88C188.457 26.88 188.703 26.8133 188.89 26.68C189.09 26.5467 189.19 26.36 189.19 26.12C189.19 25.7733 188.89 25.5267 188.29 25.38L187.13 25.1C185.25 24.66 184.31 23.6467 184.31 22.06C184.31 21.5933 184.403 21.1667 184.59 20.78C184.777 20.38 185.037 20.04 185.37 19.76C185.703 19.48 186.103 19.26 186.57 19.1C187.05 18.94 187.57 18.86 188.13 18.86C188.557 18.86 188.97 18.92 189.37 19.04C189.77 19.1467 190.143 19.3 190.49 19.5C190.837 19.7 191.143 19.94 191.41 20.22C191.677 20.5 191.89 20.8133 192.05 21.16L189.67 22.42C189.523 22.0467 189.303 21.7533 189.01 21.54C188.717 21.3133 188.417 21.2 188.11 21.2ZM193.893 29V19.12H196.813V29H193.893ZM197.053 16.26C197.053 16.4867 197.007 16.7067 196.913 16.92C196.833 17.12 196.713 17.3 196.553 17.46C196.407 17.6067 196.227 17.7267 196.013 17.82C195.813 17.9133 195.593 17.96 195.353 17.96C195.113 17.96 194.887 17.9133 194.673 17.82C194.473 17.7267 194.293 17.6067 194.133 17.46C193.987 17.3 193.867 17.12 193.773 16.92C193.693 16.7067 193.653 16.4867 193.653 16.26C193.653 16.0333 193.693 15.82 193.773 15.62C193.867 15.4067 193.987 15.2267 194.133 15.08C194.293 14.92 194.473 14.7933 194.673 14.7C194.887 14.6067 195.113 14.56 195.353 14.56C195.593 14.56 195.813 14.6067 196.013 14.7C196.227 14.7933 196.407 14.92 196.553 15.08C196.713 15.2267 196.833 15.4067 196.913 15.62C197.007 15.82 197.053 16.0333 197.053 16.26ZM202.302 29H199.382V19.12H202.302V20.38C202.608 19.9 203.002 19.5267 203.482 19.26C203.975 18.9933 204.555 18.86 205.222 18.86C206.355 18.86 207.242 19.22 207.882 19.94C208.535 20.66 208.862 21.6467 208.862 22.9V29H205.942V23.58C205.942 22.9267 205.788 22.4267 205.482 22.08C205.175 21.72 204.735 21.54 204.162 21.54C203.602 21.54 203.148 21.74 202.802 22.14C202.468 22.5267 202.302 23.0667 202.302 23.76V29ZM220.555 26.64C220.142 27.4533 219.542 28.0933 218.755 28.56C217.982 29.0267 217.055 29.26 215.975 29.26C215.202 29.26 214.495 29.1333 213.855 28.88C213.215 28.6267 212.662 28.2733 212.195 27.82C211.742 27.3533 211.382 26.8 211.115 26.16C210.862 25.52 210.735 24.82 210.735 24.06C210.735 23.3133 210.862 22.6267 211.115 22C211.382 21.36 211.742 20.8067 212.195 20.34C212.662 19.8733 213.202 19.5133 213.815 19.26C214.442 18.9933 215.122 18.86 215.855 18.86C216.602 18.86 217.282 18.9933 217.895 19.26C218.522 19.5133 219.055 19.8733 219.495 20.34C219.935 20.8067 220.275 21.3667 220.515 22.02C220.768 22.66 220.895 23.3667 220.895 24.14C220.895 24.3133 220.888 24.46 220.875 24.58C220.875 24.7 220.868 24.7933 220.855 24.86H213.595C213.622 25.1533 213.702 25.42 213.835 25.66C213.968 25.9 214.142 26.1133 214.355 26.3C214.582 26.4733 214.828 26.6133 215.095 26.72C215.375 26.8133 215.668 26.86 215.975 26.86C216.522 26.86 216.955 26.7533 217.275 26.54C217.595 26.3267 217.868 26.0333 218.095 25.66L220.555 26.64ZM218.035 22.96C217.968 22.4267 217.735 21.9933 217.335 21.66C216.935 21.3133 216.435 21.14 215.835 21.14C215.542 21.14 215.268 21.1933 215.015 21.3C214.762 21.3933 214.535 21.5267 214.335 21.7C214.135 21.8733 213.968 22.0667 213.835 22.28C213.715 22.4933 213.642 22.72 213.615 22.96H218.035ZM226.098 21.2C225.831 21.2 225.611 21.2667 225.438 21.4C225.265 21.52 225.178 21.68 225.178 21.88C225.178 22.24 225.451 22.4933 225.998 22.64L227.238 22.96C228.171 23.2 228.878 23.5733 229.358 24.08C229.851 24.5733 230.098 25.1733 230.098 25.88C230.098 26.3733 229.998 26.8267 229.798 27.24C229.598 27.6533 229.318 28.0133 228.958 28.32C228.611 28.6133 228.191 28.84 227.698 29C227.218 29.1733 226.691 29.26 226.118 29.26C225.131 29.26 224.271 29.0467 223.538 28.62C222.805 28.1933 222.271 27.6 221.938 26.84L224.298 25.54C224.485 25.9533 224.745 26.28 225.078 26.52C225.411 26.76 225.765 26.88 226.138 26.88C226.445 26.88 226.691 26.8133 226.878 26.68C227.078 26.5467 227.178 26.36 227.178 26.12C227.178 25.7733 226.878 25.5267 226.278 25.38L225.118 25.1C223.238 24.66 222.298 23.6467 222.298 22.06C222.298 21.5933 222.391 21.1667 222.578 20.78C222.765 20.38 223.025 20.04 223.358 19.76C223.691 19.48 224.091 19.26 224.558 19.1C225.038 18.94 225.558 18.86 226.118 18.86C226.545 18.86 226.958 18.92 227.358 19.04C227.758 19.1467 228.131 19.3 228.478 19.5C228.825 19.7 229.131 19.94 229.398 20.22C229.665 20.5 229.878 20.8133 230.038 21.16L227.658 22.42C227.511 22.0467 227.291 21.7533 226.998 21.54C226.705 21.3133 226.405 21.2 226.098 21.2ZM235.219 21.2C234.953 21.2 234.733 21.2667 234.559 21.4C234.386 21.52 234.299 21.68 234.299 21.88C234.299 22.24 234.573 22.4933 235.119 22.64L236.359 22.96C237.293 23.2 237.999 23.5733 238.479 24.08C238.973 24.5733 239.219 25.1733 239.219 25.88C239.219 26.3733 239.119 26.8267 238.919 27.24C238.719 27.6533 238.439 28.0133 238.079 28.32C237.733 28.6133 237.313 28.84 236.819 29C236.339 29.1733 235.813 29.26 235.239 29.26C234.253 29.26 233.393 29.0467 232.659 28.62C231.926 28.1933 231.393 27.6 231.059 26.84L233.419 25.54C233.606 25.9533 233.866 26.28 234.199 26.52C234.533 26.76 234.886 26.88 235.259 26.88C235.566 26.88 235.813 26.8133 235.999 26.68C236.199 26.5467 236.299 26.36 236.299 26.12C236.299 25.7733 235.999 25.5267 235.399 25.38L234.239 25.1C232.359 24.66 231.419 23.6467 231.419 22.06C231.419 21.5933 231.513 21.1667 231.699 20.78C231.886 20.38 232.146 20.04 232.479 19.76C232.813 19.48 233.213 19.26 233.679 19.1C234.159 18.94 234.679 18.86 235.239 18.86C235.666 18.86 236.079 18.92 236.479 19.04C236.879 19.1467 237.253 19.3 237.599 19.5C237.946 19.7 238.253 19.94 238.519 20.22C238.786 20.5 238.999 20.8133 239.159 21.16L236.779 22.42C236.633 22.0467 236.413 21.7533 236.119 21.54C235.826 21.3133 235.526 21.2 235.219 21.2Z" fill="white"/>
<path d="M39.846 44.1422C41.4255 44.1422 42.386 43.3169 42.386 42.0077C42.386 41.1113 41.8382 40.4994 40.7069 40.2504L39.597 40.0013C39.1772 39.9017 38.9566 39.7665 38.9566 39.5175C38.9566 39.2685 39.163 39.112 39.6681 39.112C40.2537 39.1324 40.8132 39.3592 41.2476 39.7523L42.1797 38.3862C41.4464 37.8733 40.5615 37.6226 39.6681 37.6747C38.1882 37.6747 37.1921 38.3862 37.1921 39.6456C37.1824 40.0926 37.3407 40.527 37.6358 40.863C37.9309 41.1989 38.3413 41.4119 38.7859 41.4599L39.8887 41.7231C40.4365 41.8441 40.6002 42.0078 40.6002 42.2212C40.6002 42.4346 40.3796 42.641 39.8887 42.641C39.1929 42.6273 38.5226 42.3763 37.989 41.9295L37 43.2529C37.8142 43.8756 38.8221 44.1906 39.846 44.1422V44.1422Z" fill="white"/>
<path d="M44.2283 39.7733C44.4425 39.7733 44.6519 39.7097 44.8299 39.5905C45.0079 39.4714 45.1465 39.3021 45.2282 39.104C45.3098 38.906 45.3308 38.6882 45.2885 38.4782C45.2462 38.2682 45.1425 38.0756 44.9905 37.9246C44.8385 37.7736 44.6452 37.6712 44.4349 37.6303C44.2247 37.5893 44.007 37.6118 43.8095 37.6947C43.612 37.7777 43.4436 37.9174 43.3256 38.0962C43.2077 38.275 43.1454 38.4847 43.1469 38.6989C43.1449 38.8412 43.1716 38.9823 43.2254 39.114C43.2791 39.2457 43.3588 39.3652 43.4597 39.4655C43.5607 39.5657 43.6807 39.6446 43.8127 39.6975C43.9448 39.7504 44.0861 39.7762 44.2283 39.7733Z" fill="white"/>
<path d="M43.0619 44.0002H45.3956L44.9047 40.1367C44.4637 40.2506 44.001 40.2506 43.56 40.1367L43.0619 44.0002Z" fill="white"/>
<path d="M46.4911 43.9984H48.3836V40.6544C48.3836 39.8362 48.7821 39.331 49.5505 39.331C50.3189 39.331 50.6675 39.7508 50.6675 40.6544V43.9984H52.5317V40.1848C52.5317 38.5199 51.6992 37.6661 50.2762 37.6661C49.9056 37.65 49.537 37.7292 49.2056 37.8961C48.8743 38.063 48.5913 38.3121 48.3836 38.6195V38.2211C48.3891 38.1627 48.3817 38.1039 48.3618 38.0487C48.3419 37.9936 48.3101 37.9435 48.2687 37.902C48.2272 37.8606 48.1772 37.8288 48.122 37.8089C48.0669 37.789 48.008 37.7816 47.9496 37.7871H46.5266L46.4911 43.9984Z" fill="white"/>
<path d="M58.6286 37.7884C58.5702 37.7829 58.5114 37.7903 58.4562 37.8102C58.4011 37.8301 58.351 37.8619 58.3095 37.9033C58.2681 37.9448 58.2363 37.9949 58.2164 38.05C58.1966 38.1052 58.1891 38.164 58.1946 38.2224V38.5995C57.9875 38.2945 57.705 38.0484 57.3746 37.8851C57.0442 37.7218 56.6771 37.6468 56.3091 37.6674C55.5431 37.7411 54.8321 38.0975 54.3147 38.6671C53.7972 39.2367 53.5106 39.9787 53.5106 40.7482C53.5106 41.5177 53.7972 42.2597 54.3147 42.8293C54.8321 43.3989 55.5431 43.7553 56.3091 43.829C56.665 43.8514 57.0212 43.7897 57.3488 43.6487C57.6764 43.5078 57.9661 43.2917 58.1946 43.0179V43.4305C58.195 43.6255 58.1554 43.8184 58.0781 43.9973C58.0009 44.1763 57.8878 44.3375 57.7457 44.4709C57.6036 44.6043 57.4356 44.7071 57.2521 44.773C57.0686 44.8388 56.8736 44.8662 56.6791 44.8535C55.9805 44.8671 55.3032 44.6125 54.7865 44.142L53.8118 45.565C54.6422 46.1926 55.6683 46.5052 56.7076 46.4473C58.5717 46.4473 60.0872 45.5152 60.0872 43.1744V37.7884H58.6286ZM56.8072 42.1854C56.5257 42.1854 56.2506 42.102 56.0166 41.9456C55.7826 41.7892 55.6002 41.567 55.4925 41.307C55.3848 41.047 55.3566 40.7608 55.4115 40.4848C55.4664 40.2088 55.602 39.9552 55.801 39.7562C56 39.5572 56.2535 39.4217 56.5296 39.3668C56.8056 39.3119 57.0917 39.34 57.3517 39.4478C57.6118 39.5555 57.834 39.7378 57.9903 39.9719C58.1467 40.2059 58.2302 40.481 58.2302 40.7624C58.2302 41.1398 58.0802 41.5018 57.8134 41.7686C57.5465 42.0355 57.1846 42.1854 56.8072 42.1854Z" fill="white"/>
<path d="M65.2961 37.6663C64.9166 37.6495 64.5387 37.7257 64.1952 37.8881C63.8517 38.0505 63.5531 38.2944 63.3253 38.5984V38.2213C63.3308 38.1629 63.3233 38.1041 63.3035 38.0489C63.2836 37.9938 63.2518 37.9437 63.2104 37.9022C63.1689 37.8608 63.1188 37.829 63.0637 37.8091C63.0085 37.7893 62.9497 37.7818 62.8913 37.7873H61.4683V46.2755H63.3253V43.3156C63.5726 43.59 63.8776 43.8063 64.2183 43.949C64.559 44.0917 64.9271 44.1573 65.2961 44.141C65.7031 44.1306 66.1037 44.0375 66.4736 43.8675C66.8435 43.6974 67.175 43.4539 67.4478 43.1518C67.7207 42.8497 67.9292 42.4952 68.0608 42.1099C68.1924 41.7247 68.2443 41.3167 68.2133 40.9108C68.2463 40.5037 68.196 40.0942 68.0653 39.7073C67.9346 39.3203 67.7264 38.9641 67.4533 38.6604C67.1803 38.3567 66.8481 38.1119 66.4772 37.941C66.1063 37.7701 65.7044 37.6766 65.2961 37.6663V37.6663ZM64.7981 42.4832C64.4802 42.496 64.1657 42.4133 63.8951 42.2458C63.6246 42.0783 63.4104 41.8337 63.2801 41.5434C63.1498 41.2531 63.1094 40.9304 63.164 40.617C63.2187 40.3035 63.3659 40.0136 63.5867 39.7845C63.8076 39.5555 64.0919 39.3977 64.4032 39.3317C64.7145 39.2656 65.0384 39.2942 65.3332 39.4139C65.6281 39.5335 65.8804 39.7386 66.0576 40.0029C66.2349 40.2671 66.329 40.5784 66.3278 40.8965C66.3386 41.1029 66.3068 41.3093 66.2345 41.5029C66.1621 41.6965 66.0508 41.8731 65.9074 42.0219C65.7639 42.1707 65.5915 42.2884 65.4006 42.3677C65.2098 42.4471 65.0047 42.4864 64.7981 42.4832V42.4832Z" fill="white"/>
<path d="M74.3674 37.7881C74.309 37.7826 74.2502 37.7901 74.195 37.8099C74.1399 37.8298 74.0898 37.8616 74.0483 37.903C74.0069 37.9445 73.9751 37.9946 73.9552 38.0497C73.9353 38.1049 73.9279 38.1637 73.9334 38.2221V38.5992C73.7022 38.29 73.3978 38.043 73.0476 37.8803C72.6975 37.7176 72.3124 37.6444 71.927 37.6671C71.52 37.6775 71.1194 37.7706 70.7495 37.9406C70.3796 38.1107 70.0481 38.3542 69.7753 38.6563C69.5024 38.9584 69.2939 39.3129 69.1623 39.6982C69.0307 40.0834 68.9788 40.4914 69.0098 40.8973C68.9788 41.3033 69.0307 41.7113 69.1623 42.0965C69.2939 42.4818 69.5024 42.8362 69.7753 43.1384C70.0481 43.4405 70.3796 43.684 70.7495 43.854C71.1194 44.0241 71.52 44.1171 71.927 44.1275C72.3122 44.1484 72.6966 44.0743 73.0464 43.9118C73.3963 43.7493 73.7009 43.5033 73.9334 43.1955V43.9995H75.7975V37.7881H74.3674ZM72.425 42.484C72.0216 42.457 71.6436 42.2777 71.3675 41.9825C71.0913 41.6872 70.9377 41.298 70.9377 40.8938C70.9377 40.4895 71.0913 40.1004 71.3675 39.8051C71.6436 39.5099 72.0216 39.3306 72.425 39.3036C72.8284 39.3306 73.2064 39.5099 73.4826 39.8051C73.7587 40.1004 73.9123 40.4895 73.9123 40.8938C73.9123 41.298 73.7587 41.6872 73.4826 41.9825C73.2064 42.2777 72.8284 42.457 72.425 42.484Z" fill="white"/>
<path d="M79.5695 44.1422C81.149 44.1422 82.1095 43.3169 82.1095 42.0077C82.1095 41.1113 81.5617 40.4994 80.4304 40.2504L79.3276 40.0013C78.9007 39.9017 78.6801 39.7665 78.6801 39.5175C78.6801 39.2685 78.8865 39.112 79.3916 39.112C79.9772 39.1324 80.5367 39.3592 80.9711 39.7523L81.9032 38.3862C81.1699 37.8733 80.285 37.6226 79.3916 37.6747C77.9117 37.6747 76.9156 38.3862 76.9156 39.6456C76.9059 40.0926 77.0642 40.527 77.3593 40.863C77.6544 41.1989 78.0648 41.4119 78.5094 41.4599L79.6122 41.7231C80.16 41.8441 80.3237 42.0078 80.3237 42.2212C80.3237 42.4346 80.096 42.641 79.6122 42.641C78.9164 42.6273 78.2461 42.3763 77.7125 41.9295L76.7804 43.2956C77.5965 43.9132 78.6043 44.2231 79.6264 44.1707L79.5695 44.1422Z" fill="white"/>
<path d="M85.4601 44.1427C87.0396 44.1427 88.0001 43.3173 88.0001 42.0082C88.0001 41.1117 87.4523 40.4998 86.321 40.2508L85.211 40.0017C84.7913 39.9021 84.5707 39.767 84.5707 39.5179C84.5707 39.2689 84.777 39.1124 85.2822 39.1124C85.8658 39.132 86.4233 39.359 86.8546 39.7527L87.7867 38.3866C87.0568 37.8721 86.1736 37.6212 85.2822 37.6752C83.8023 37.6752 82.8062 38.3866 82.8062 39.646C82.7965 40.093 82.9548 40.5274 83.2499 40.8634C83.545 41.1993 83.9554 41.4123 84.3999 41.4603L85.5027 41.7236C86.0506 41.8445 86.2142 42.0082 86.2142 42.2216C86.2142 42.4351 85.9937 42.6414 85.5027 42.6414C84.8069 42.6277 84.1366 42.3767 83.603 41.9299L82.671 43.296C83.4871 43.9136 84.4949 44.2235 85.517 44.1711L85.4601 44.1427Z" fill="white"/>
<path d="M20.63 38.4202L19.12 44.0002H17.23L16.35 40.3802L15.44 44.0002H13.56L12.04 38.4202H13.75L14.54 42.4102L15.48 38.4202H17.29L18.24 42.3902L19.02 38.4202H20.63Z" fill="white"/>
<path d="M22.1421 37.8402C21.8421 37.8402 21.5955 37.7536 21.4021 37.5802C21.2155 37.4002 21.1221 37.1802 21.1221 36.9202C21.1221 36.6536 21.2155 36.4336 21.4021 36.2602C21.5955 36.0802 21.8421 35.9902 22.1421 35.9902C22.4355 35.9902 22.6755 36.0802 22.8621 36.2602C23.0555 36.4336 23.1521 36.6536 23.1521 36.9202C23.1521 37.1802 23.0555 37.4002 22.8621 37.5802C22.6755 37.7536 22.4355 37.8402 22.1421 37.8402ZM22.9921 38.4202V44.0002H21.2821V38.4202H22.9921Z" fill="white"/>
<path d="M27.3413 42.5502V44.0002H26.4713C25.8513 44.0002 25.368 43.8502 25.0213 43.5502C24.6747 43.2436 24.5013 42.7469 24.5013 42.0602V39.8402H23.8213V38.4202H24.5013V37.0602H26.2113V38.4202H27.3313V39.8402H26.2113V42.0802C26.2113 42.2469 26.2513 42.3669 26.3313 42.4402C26.4113 42.5136 26.5447 42.5502 26.7313 42.5502H27.3413Z" fill="white"/>
<path d="M31.7238 38.3602C32.3638 38.3602 32.8772 38.5736 33.2638 39.0002C33.6505 39.4202 33.8438 40.0002 33.8438 40.7402V44.0002H32.1438V40.9702C32.1438 40.5969 32.0472 40.3069 31.8538 40.1002C31.6605 39.8936 31.4005 39.7902 31.0738 39.7902C30.7472 39.7902 30.4872 39.8936 30.2938 40.1002C30.1005 40.3069 30.0038 40.5969 30.0038 40.9702V44.0002H28.2938V36.6002H30.0038V39.1702C30.1772 38.9236 30.4138 38.7269 30.7138 38.5802C31.0138 38.4336 31.3505 38.3602 31.7238 38.3602Z" fill="white"/>
</svg>
