<?xml version="1.0" encoding="UTF-8" standalone="no"?>
<!DOCTYPE svg PUBLIC "-//W3C//DTD SVG 1.1//EN" "http://www.w3.org/Graphics/SVG/1.1/DTD/svg11.dtd">
<svg width="100%" height="100%" viewBox="0 0 230 48" version="1.1" xmlns="http://www.w3.org/2000/svg" xmlns:xlink="http://www.w3.org/1999/xlink" xml:space="preserve" xmlns:serif="http://www.serif.com/" style="fill-rule:evenodd;clip-rule:evenodd;stroke-linejoin:round;stroke-miterlimit:2;">
    <g id="Primary" transform="matrix(0.721059,0,0,1,114.648,24)">
        <g transform="matrix(1,0,0,1,-159,-24)">
            <path d="M318,8C318,3.585 314.415,0 310,0L8,0C3.585,0 0,3.585 0,8L0,40C0,44.415 3.585,48 8,48L310,48C314.415,48 318,44.415 318,40L318,8Z" style="fill:rgb(244,51,61);"/>
        </g>
    </g>
    <g transform="matrix(1,0,0,1,-457.798,-363)">
        <g id="singpass_logo_white" transform="matrix(0.189076,0,0,0.189076,624.582,388.889)">
            <g transform="matrix(1,0,0,1,-234,-40.5)">
                <path d="M26.013,59.76C40.464,59.76 49.287,52.224 49.287,40.5C49.287,32.278 44.267,26.721 33.923,24.437L23.807,22.153C19.928,21.24 17.874,20.022 17.874,17.738C17.874,15.454 19.776,14.008 24.111,14.008C29.359,14.008 34.836,16.52 38.563,19.946L47.081,7.384C42.974,3.73 34.532,0.533 24.035,0.533C10.496,0.533 1.369,7.232 1.369,18.651C1.369,26.949 6.009,33.039 15.973,35.323L26.089,37.683C31.109,38.825 32.706,40.272 32.706,42.251C32.706,44.763 30.652,46.134 26.013,46.134C20.536,46.134 13.919,43.85 8.595,39.282L0,51.767C3.955,55.421 13.082,59.76 26.013,59.76ZM66.173,19.793C71.725,19.793 76.061,15.454 76.061,9.897C76.061,4.339 71.725,0 66.173,0C60.62,0 56.285,4.339 56.285,9.897C56.209,15.454 60.544,19.793 66.173,19.793ZM55.448,58.618L76.897,58.618L72.334,23.143C68.911,24.133 63.434,24.133 60.012,23.143L55.448,58.618ZM86.937,58.618L104.051,58.618L104.051,27.939C104.051,20.402 107.702,15.758 114.775,15.758C121.469,15.758 125.043,19.641 125.043,27.939L125.043,58.618L142.157,58.618L142.157,23.6C142.157,8.298 134.551,0.457 121.392,0.457C113.862,0.457 108.158,3.426 104.051,9.211L104.051,5.557C104.051,3.045 102.606,1.599 100.096,1.599L87.013,1.599L87.013,58.618L86.937,58.618ZM194.411,5.481L194.411,8.907C190.531,3.121 184.371,0.381 177.069,0.381C163.302,0.381 151.284,12.485 151.284,28.7C151.284,44.915 163.226,57.02 177.069,57.02C184.371,57.02 190.303,54.736 194.411,49.635L194.411,53.289C194.411,61.054 189.314,66.612 180.491,66.612C172.657,66.612 166.572,63.338 162.845,59.684L153.946,72.93C159.651,78.031 169.082,81 180.491,81C197.605,81 211.524,72.474 211.524,51.006L211.524,1.599L198.442,1.599C195.856,1.523 194.411,2.969 194.411,5.481ZM181.632,41.946C174.483,41.946 168.626,36.161 168.626,28.7C168.626,21.316 174.407,15.454 181.632,15.454C189.391,15.454 194.943,21.24 194.943,28.7C194.943,36.085 189.391,41.946 181.632,41.946ZM259.518,59.76C274.35,59.76 286.292,47.656 286.292,30.071C286.292,12.485 274.35,0.381 259.518,0.381C251.76,0.381 245.371,3.121 241.188,8.907L241.188,5.481C241.188,2.969 239.743,1.523 237.233,1.523L224.15,1.523L224.15,79.63L241.264,79.63L241.264,52.376C245.599,57.477 251.76,59.76 259.518,59.76ZM254.955,44.687C246.892,44.687 240.579,38.673 240.579,30.071C240.579,21.544 246.816,15.454 254.955,15.454C262.941,15.454 268.95,21.468 268.95,30.071C269.026,38.597 262.941,44.687 254.955,44.687ZM320.443,59.76C328.201,59.76 334.59,57.02 338.773,51.234L338.773,58.618L355.963,58.618L355.963,1.523L342.881,1.523C340.371,1.523 338.925,2.969 338.925,5.481L338.925,8.907C334.742,3.121 328.353,0.381 320.595,0.381C305.763,0.381 293.822,12.485 293.822,30.071C293.822,47.656 305.611,59.76 320.443,59.76ZM325.006,44.687C317.02,44.687 311.011,38.673 311.011,30.071C311.011,21.544 317.02,15.454 325.006,15.454C333.069,15.454 339.382,21.468 339.382,30.071C339.382,38.597 333.145,44.687 325.006,44.687ZM390.647,59.76C405.098,59.76 413.921,52.224 413.921,40.5C413.921,32.278 408.901,26.721 398.557,24.437L388.441,22.153C384.562,21.24 382.508,20.022 382.508,17.738C382.508,15.454 384.41,14.008 388.745,14.008C393.993,14.008 399.47,16.52 403.197,19.946L411.715,7.384C407.608,3.73 399.165,0.533 388.669,0.533C375.13,0.533 366.003,7.232 366.003,18.651C366.003,26.949 370.643,33.039 380.607,35.323L390.723,37.683C395.743,38.825 397.34,40.272 397.34,42.251C397.34,44.763 395.286,46.134 390.647,46.134C385.17,46.134 378.553,43.85 373.229,39.282L364.71,51.843C368.589,55.421 377.716,59.76 390.647,59.76ZM444.726,59.76C459.177,59.76 468,52.224 468,40.5C468,32.278 462.98,26.721 452.636,24.437L442.52,22.153C438.641,21.24 436.587,20.022 436.587,17.738C436.587,15.454 438.489,14.008 442.824,14.008C448.072,14.008 453.549,16.52 457.276,19.946L465.794,7.384C461.687,3.73 453.244,0.533 442.748,0.533C429.209,0.533 420.082,7.232 420.082,18.651C420.082,26.949 424.722,33.039 434.686,35.323L444.802,37.683C449.822,38.825 451.419,40.272 451.419,42.251C451.419,44.763 449.365,46.134 444.726,46.134C439.249,46.134 432.632,43.85 427.308,39.282L418.789,51.843C422.668,55.421 431.795,59.76 444.726,59.76Z" style="fill:white;fill-rule:nonzero;"/>
            </g>
        </g>
        <g transform="matrix(1,0,0,1,148.579,-55.0315)">
            <text x="326.489px" y="447.289px" style="font-family:'Gadugi-Bold', 'Gadugi', sans-serif;font-weight:700;font-size:20px;fill:white;">Login with</text>
        </g>
    </g>
</svg>
