<svg xmlns="http://www.w3.org/2000/svg" width="760" height="231" fill="none" viewBox="0 0 760 231">
  <g clip-path="url(#a)">
    <path fill="#777776" fill-rule="evenodd" d="M281.028 66.75c-13.492 0-22.687-6.611-22.687-16.22V13.015h12.693v37.437c0 5.689 4.797 8.764 10.494 8.764 5.797 0 10.394-3.075 10.394-8.764V13.015h11.794V50.53c0 9.609-9.195 16.22-22.688 16.22Zm45.179-38.39c-2.11 0-3.751.3-4.923.721V45.31c.625.179 2.188.3 3.673.3 7.657 0 11.408-3.186 11.408-8.715 0-5.77-2.891-8.535-10.158-8.535Zm10.47 37.566L321.44 47.173h-.156v18.753h-9.768v-39.61c3.36-1.322 8.518-2.344 14.691-2.344 13.361 0 19.847 4.809 19.847 12.562 0 6.251-5.86 10.518-14.378 10.939v.12l16.019 18.333h-11.018Zm27.425-19.775-3.047.06v14.845c1.719.541 3.594.783 6.251.783 6.407 0 10.94-1.984 10.94-7.334 0-5.71-3.986-8.535-14.144-8.354Zm2.891-17.852c-2.344 0-4.141.241-5.938.722v13.403l3.047.06c9.533.181 12.737-2.344 12.737-7.333 0-4.567-3.36-6.852-9.846-6.852Zm.626 38.228c-6.799 0-12.268-.842-15.941-2.345V26.316c3.282-1.382 8.83-2.344 15.315-2.344 12.972 0 19.379 4.568 19.379 10.699 0 5.65-5.47 8.595-10.002 9.377v.12c4.923.841 11.799 4.447 11.799 10.458 0 8.234-8.282 11.901-20.55 11.901Zm44.537-30.233c-1.172-3.066-1.406-4.989-1.406-4.989h-.156s-.235 1.923-1.486 4.989l-5.782 14.545h14.378l-5.548-14.545Zm11.096 29.632-4.142-10.64h-17.346l-4.298 10.64h-8.908l17.816-41.353h9.377l17.737 41.353h-10.236Zm44.537 0-20.394-26.687a49.41 49.41 0 0 1-3.125-4.628h-.157s.313 2.344.313 4.808v26.507h-8.362V24.573h9.377l19.223 25.124c1.797 2.344 2.891 4.207 2.891 4.207h.156s-.234-1.983-.234-4.387V24.573h8.283v41.353h-7.971ZM277.33 94.06c-2.698 0-4.797.383-6.296.922v20.756c.799.23 2.798.384 4.697.384 9.795 0 14.592-4.074 14.592-11.146 0-7.381-3.698-10.916-12.993-10.916Zm13.393 48.046-19.49-23.985h-.199v23.985h-12.493v-50.66c4.297-1.691 10.894-2.999 18.789-2.999 17.091 0 25.386 6.15 25.386 16.067 0 7.995-7.495 13.453-18.389 13.992v.153l20.488 23.447h-14.092Zm17.646-.023v-41.352h26.177v5.109h-16.253v12.502h14.456v5.049h-14.456v13.584h16.253v5.108h-26.177Zm46.257-36.965c-2.11 0-3.672.181-5.079.601v31.075c1.172.3 3.125.601 5.235.601 9.221 0 12.815-5.168 12.815-16.409 0-10.759-3.985-15.868-12.971-15.868Zm.312 37.566c-6.641 0-11.955-.901-15.237-2.344v-37.866c3.517-1.382 8.518-2.343 14.691-2.343 16.253 0 23.285 8.594 23.285 20.976 0 12.321-6.485 21.577-22.739 21.577Zm28.207-.601v-41.352h26.176v5.109h-16.253v12.502h14.456v5.049h-14.456v13.584h16.253v5.108h-26.176Zm51.725 0h-8.596L410.1 100.731h10.548l8.752 26.566c.782 2.404 1.407 5.23 1.407 5.23h.156s.626-2.826 1.407-5.23l8.907-26.566h9.455l-15.862 41.352Zm18.596 0v-41.352h26.177v5.109H463.39v12.502h14.456v5.049H463.39v13.584h16.253v5.108h-26.177Zm31.487 0v-41.352h10.002v36.244h14.847v5.108h-24.849Zm47.43-36.905c-8.283 0-10.158 8.235-10.158 15.988 0 7.694 1.64 15.868 10.158 15.868 8.517 0 10.08-8.174 10.08-15.868 0-7.753-1.798-15.988-10.08-15.988Zm0 37.506c-14.456 0-20.238-9.496-20.238-21.277 0-11.721 5.782-21.276 20.238-21.276s20.16 9.555 20.16 21.276c0 11.781-5.704 21.277-20.16 21.277Zm40.317-38.166c-2.344 0-4.063.36-5.001.66v16.049l2.031.121c9.69.6 13.207-2.705 13.207-8.416 0-5.589-2.891-8.414-10.237-8.414Zm-2.891 21.338-2.11-.121v16.348h-9.689v-39.609c3.438-1.382 8.674-2.343 14.846-2.343 13.832 0 19.614 5.529 19.614 12.862 0 7.513-6.642 13.763-22.661 12.863Zm70.402 16.227c-.078-1.022-3.439-27.348-3.439-27.348-.312-2.584-.234-4.988-.234-4.988h-.156s-.547 2.343-1.563 4.988c0 0-9.611 25.966-10.236 27.348h-5.626c-.548-1.202-10.159-27.408-10.159-27.408-.938-2.585-1.563-4.928-1.563-4.928h-.156s.078 2.343-.234 4.928c0 0-3.361 26.206-3.439 27.408h-8.36l6.017-41.352h10.001l9.612 26.506c.937 2.645 1.406 4.628 1.406 4.628h.156s.391-1.983 1.407-4.628l9.923-26.506h10.002l6.018 41.352h-9.377Zm14.609 0v-41.352h26.177v5.109h-16.253v12.502H679.2v5.049h-14.456v13.584h16.253v5.108H654.82Zm63.056 0-20.395-26.686a49.731 49.731 0 0 1-3.125-4.629h-.156s.313 2.345.313 4.809v26.506h-8.362v-41.352h9.377l19.223 25.125c1.797 2.343 2.891 4.207 2.891 4.207h.156s-.235-1.985-.235-4.389v-24.943h8.284v41.352h-7.971Zm31.956-36.243v36.243h-9.924V105.84h-10.002v-5.109h30.006v5.109h-10.08Zm-467.205 74.523c-1.499-3.919-1.799-6.38-1.799-6.38h-.2s-.299 2.461-1.899 6.38l-7.396 18.604h18.391l-7.097-18.604Zm14.192 37.899-5.297-13.606h-22.188l-5.496 13.606h-11.394l22.787-52.889h11.994l22.688 52.889h-13.094Zm32.586.673c-10.549 0-17.738-5.169-17.738-12.683v-29.33h9.924v29.271c0 4.448 3.751 6.852 8.204 6.852 4.533 0 8.127-2.404 8.127-6.852v-29.271h9.221v29.33c0 7.514-7.189 12.683-17.738 12.683Zm41.724-36.905v36.244h-9.923V182.03h-10.002v-5.108h30.005v5.108h-10.08Zm40.943 36.244v-18.693h-16.956v18.693h-9.924v-41.352h9.924v17.61h16.956v-17.61h9.924v41.352h-9.924Zm35.63-36.905c-8.283 0-10.158 8.235-10.158 15.989 0 7.693 1.641 15.867 10.158 15.867 8.518 0 10.08-8.174 10.08-15.867 0-7.754-1.798-15.989-10.08-15.989Zm0 37.506c-14.456 0-20.238-9.497-20.238-21.277 0-11.721 5.782-21.278 20.238-21.278s20.16 9.557 20.16 21.278c0 11.78-5.704 21.277-20.16 21.277Zm40.474-38.167c-2.11 0-3.751.301-4.923.722v16.228c.625.18 2.188.3 3.673.3 7.657 0 11.408-3.185 11.408-8.715 0-5.77-2.891-8.535-10.158-8.535Zm10.47 37.566-15.237-18.752h-.156v18.752h-9.768v-39.61c3.361-1.322 8.518-2.344 14.691-2.344 13.362 0 19.847 4.809 19.847 12.563 0 6.25-5.86 10.518-14.377 10.938v.121l16.018 18.332h-11.018Zm15.157 0h10.002v-41.352h-10.002v41.352Zm34.144-36.244v36.244h-9.924V182.03h-10.002v-5.108h30.006v5.108h-10.08Zm38.679 18.392v17.852h-9.924v-17.852l-14.456-23.5h10.549l9.221 17.129h.156l9.611-17.129h9.455l-14.612 23.5Z" clip-rule="evenodd"/>
    <mask id="b" width="229" height="231" x="0" y="0" maskUnits="userSpaceOnUse" style="mask-type:alpha">
      <path fill="#fff" d="M.06.162h228.778V231H.06V.162Z"/>
    </mask>
    <g mask="url(#b)">
      <path fill="#D82332" fill-rule="evenodd" d="M206.002 217.276h22.836V12.275h-22.836v205.001Z" clip-rule="evenodd"/>
      <path fill="#D82332" fill-rule="evenodd" d="M0 115.581C0 51.836 51.117.162 114.175.162c63.059 0 114.177 51.674 114.177 115.419S177.234 231 114.175 231C51.117 231 0 179.326 0 115.581Zm20.74-.235c0 51.555 41.265 93.348 92.172 93.348 50.906 0 92.173-41.793 92.173-93.348 0-51.554-41.267-93.346-92.173-93.346-50.907 0-92.172 41.792-92.172 93.346Z" clip-rule="evenodd"/>
    </g>
    <path fill="#D82332" fill-rule="evenodd" d="M156.083 78.665v38.864c0 5.735-3.601 9.907-9.382 9.907h-16.304V69.189l15.592-.05c5.782 0 10.094 3.791 10.094 9.526ZM98.886 55.444h69.186c11.564 0 19.574 9.383 19.574 20.945l.045 31.042c0 11.563-9.003 21.804-20.566 21.804 11.515 0 20.521 8.247 20.521 19.808v20.934h-32.369l.048-15.013c.379-5.685-4.408-11.142-10.141-11.142l-15.021-.222v26.519H98.411v-25.588c0 15.399-12.275 25.541-27.676 25.541-15.354 0-28.433-12.638-28.433-28.007V55.444h30.186v62.783c0 5.734 4.834 9.81 10.568 9.81l15.591.047.239-72.64Z" clip-rule="evenodd"/>
  </g>
  <defs>
    <clipPath id="a">
      <path fill="#fff" d="M0 0h760v231H0z"/>
    </clipPath>
  </defs>
</svg>
